<mxfile host="app.diagrams.net" agent="Mozilla/5.0 (Windows NT 10.0; Win64; x64) AppleWebKit/537.36 (KHTML, like Gecko) Chrome/133.0.0.0 Safari/537.36" version="26.0.16">
  <diagram name="Página-1" id="KxnsqElue_293YBP5g9A">
    <mxGraphModel dx="1154" dy="538" grid="1" gridSize="10" guides="1" tooltips="1" connect="1" arrows="1" fold="1" page="1" pageScale="1" pageWidth="827" pageHeight="1169" math="0" shadow="0">
      <root>
        <mxCell id="0" />
        <mxCell id="1" parent="0" />
        <mxCell id="lkCGM3WwdxfAOzGKJ_4i-1" value="EMPLEADO&amp;nbsp;&lt;div&gt;INVENTARIO&lt;/div&gt;" style="shape=umlActor;verticalLabelPosition=bottom;verticalAlign=top;html=1;outlineConnect=0;fillColor=#e1d5e7;strokeColor=#9673a6;" parent="1" vertex="1">
          <mxGeometry x="760" y="340" width="30" height="60" as="geometry" />
        </mxCell>
        <mxCell id="lkCGM3WwdxfAOzGKJ_4i-2" value="EMPLEADO&lt;div&gt;&amp;nbsp;MOSTRADOR&lt;/div&gt;" style="shape=umlActor;verticalLabelPosition=bottom;verticalAlign=top;html=1;outlineConnect=0;fillColor=#e1d5e7;strokeColor=#9673a6;" parent="1" vertex="1">
          <mxGeometry x="40" y="340" width="30" height="60" as="geometry" />
        </mxCell>
        <mxCell id="lkCGM3WwdxfAOzGKJ_4i-3" value="" style="swimlane;startSize=0;fillColor=#d5e8d4;strokeColor=#82b366;" parent="1" vertex="1">
          <mxGeometry x="120" y="80" width="600" height="600" as="geometry" />
        </mxCell>
        <mxCell id="lkCGM3WwdxfAOzGKJ_4i-4" value="" style="ellipse;whiteSpace=wrap;html=1;fillColor=#ffe6cc;strokeColor=#d79b00;" parent="lkCGM3WwdxfAOzGKJ_4i-3" vertex="1">
          <mxGeometry x="480" y="260" width="90" height="40" as="geometry" />
        </mxCell>
        <mxCell id="lkCGM3WwdxfAOzGKJ_4i-7" value="" style="ellipse;whiteSpace=wrap;html=1;fillColor=#fff2cc;strokeColor=#d6b656;" parent="lkCGM3WwdxfAOzGKJ_4i-3" vertex="1">
          <mxGeometry x="445" y="40" width="90" height="40" as="geometry" />
        </mxCell>
        <mxCell id="lkCGM3WwdxfAOzGKJ_4i-10" value="" style="ellipse;whiteSpace=wrap;html=1;fillColor=#ffe6cc;strokeColor=#d79b00;" parent="lkCGM3WwdxfAOzGKJ_4i-3" vertex="1">
          <mxGeometry x="65" y="240" width="90" height="40" as="geometry" />
        </mxCell>
        <mxCell id="lkCGM3WwdxfAOzGKJ_4i-13" value="PRESTAMO DE&amp;nbsp;&lt;div&gt;PELICULA&lt;/div&gt;" style="text;html=1;align=center;verticalAlign=middle;resizable=0;points=[];autosize=1;strokeColor=none;fillColor=none;" parent="lkCGM3WwdxfAOzGKJ_4i-3" vertex="1">
          <mxGeometry x="55" y="280" width="110" height="40" as="geometry" />
        </mxCell>
        <mxCell id="lkCGM3WwdxfAOzGKJ_4i-15" value="" style="ellipse;whiteSpace=wrap;html=1;fillColor=#ffe6cc;strokeColor=#d79b00;" parent="lkCGM3WwdxfAOzGKJ_4i-3" vertex="1">
          <mxGeometry x="50" y="360" width="90" height="40" as="geometry" />
        </mxCell>
        <mxCell id="lkCGM3WwdxfAOzGKJ_4i-25" value="&lt;font style=&quot;vertical-align: inherit;&quot;&gt;&lt;font style=&quot;vertical-align: inherit;&quot;&gt;&lt;font style=&quot;vertical-align: inherit;&quot;&gt;&lt;font style=&quot;vertical-align: inherit;&quot;&gt;AGREGAR ARTICULO&lt;/font&gt;&lt;/font&gt;&lt;/font&gt;&lt;/font&gt;" style="text;html=1;align=center;verticalAlign=middle;resizable=0;points=[];autosize=1;strokeColor=none;fillColor=none;" parent="lkCGM3WwdxfAOzGKJ_4i-3" vertex="1">
          <mxGeometry x="285" y="300" width="150" height="30" as="geometry" />
        </mxCell>
        <mxCell id="lkCGM3WwdxfAOzGKJ_4i-22" value="&lt;font style=&quot;vertical-align: inherit;&quot;&gt;&lt;font style=&quot;vertical-align: inherit;&quot;&gt;&lt;font style=&quot;vertical-align: inherit;&quot;&gt;&lt;font style=&quot;vertical-align: inherit;&quot;&gt;&lt;font style=&quot;vertical-align: inherit;&quot;&gt;&lt;font style=&quot;vertical-align: inherit;&quot;&gt;QUITAR O&amp;nbsp;&lt;/font&gt;&lt;/font&gt;&lt;/font&gt;&lt;/font&gt;&lt;/font&gt;&lt;/font&gt;&lt;div&gt;&lt;font style=&quot;vertical-align: inherit;&quot;&gt;&lt;font style=&quot;vertical-align: inherit;&quot;&gt;&lt;font style=&quot;vertical-align: inherit;&quot;&gt;&lt;font style=&quot;vertical-align: inherit;&quot;&gt;ACTUALIZAR&amp;nbsp;&lt;/font&gt;&lt;/font&gt;&lt;/font&gt;&lt;/font&gt;&lt;span style=&quot;background-color: transparent; color: light-dark(rgb(0, 0, 0), rgb(255, 255, 255));&quot;&gt;&lt;font style=&quot;vertical-align: inherit;&quot;&gt;&lt;font style=&quot;vertical-align: inherit;&quot;&gt;TÍTULO&lt;/font&gt;&lt;/font&gt;&lt;/span&gt;&lt;/div&gt;" style="text;html=1;align=center;verticalAlign=middle;resizable=0;points=[];autosize=1;strokeColor=none;fillColor=none;" parent="lkCGM3WwdxfAOzGKJ_4i-3" vertex="1">
          <mxGeometry x="285" y="180" width="140" height="40" as="geometry" />
        </mxCell>
        <mxCell id="lkCGM3WwdxfAOzGKJ_4i-31" value="" style="ellipse;whiteSpace=wrap;html=1;fillColor=#fff2cc;strokeColor=#d6b656;" parent="lkCGM3WwdxfAOzGKJ_4i-3" vertex="1">
          <mxGeometry x="310" y="140" width="90" height="40" as="geometry" />
        </mxCell>
        <mxCell id="lkCGM3WwdxfAOzGKJ_4i-32" value="" style="ellipse;whiteSpace=wrap;html=1;fillColor=#fff2cc;strokeColor=#d6b656;" parent="lkCGM3WwdxfAOzGKJ_4i-3" vertex="1">
          <mxGeometry x="294" y="260" width="90" height="40" as="geometry" />
        </mxCell>
        <mxCell id="lkCGM3WwdxfAOzGKJ_4i-35" value="" style="ellipse;whiteSpace=wrap;html=1;fillColor=#fff2cc;strokeColor=#d6b656;" parent="lkCGM3WwdxfAOzGKJ_4i-3" vertex="1">
          <mxGeometry x="350" y="330" width="90" height="40" as="geometry" />
        </mxCell>
        <mxCell id="lkCGM3WwdxfAOzGKJ_4i-51" value="" style="endArrow=classic;html=1;rounded=0;fillColor=#d5e8d4;strokeColor=#82b366;entryX=0;entryY=1;entryDx=0;entryDy=0;" parent="lkCGM3WwdxfAOzGKJ_4i-3" target="lkCGM3WwdxfAOzGKJ_4i-10" edge="1">
          <mxGeometry width="50" height="50" relative="1" as="geometry">
            <mxPoint x="-19.760000000000005" y="309.22" as="sourcePoint" />
            <mxPoint x="50.000011862580095" y="336.78235712796936" as="targetPoint" />
            <Array as="points" />
          </mxGeometry>
        </mxCell>
        <mxCell id="lkCGM3WwdxfAOzGKJ_4i-5" value="&lt;font style=&quot;vertical-align: inherit;&quot;&gt;&lt;font style=&quot;vertical-align: inherit;&quot;&gt;MANTENIMIENTO&lt;/font&gt;&lt;/font&gt;" style="text;html=1;align=center;verticalAlign=middle;resizable=0;points=[];autosize=1;strokeColor=none;fillColor=none;" parent="lkCGM3WwdxfAOzGKJ_4i-3" vertex="1">
          <mxGeometry x="465" y="308" width="120" height="30" as="geometry" />
        </mxCell>
        <mxCell id="p_1Ra2Rw0H--HfCNnFRR-1" value="&lt;font style=&quot;vertical-align: inherit;&quot;&gt;&lt;font style=&quot;vertical-align: inherit;&quot;&gt;&lt;font style=&quot;vertical-align: inherit;&quot;&gt;&lt;font style=&quot;vertical-align: inherit;&quot;&gt;CANCELACIÓN&amp;nbsp;&lt;/font&gt;&lt;/font&gt;&lt;/font&gt;&lt;/font&gt;&lt;div&gt;&lt;font style=&quot;vertical-align: inherit;&quot;&gt;&lt;font style=&quot;vertical-align: inherit;&quot;&gt;DE RESERVACION&lt;/font&gt;&lt;/font&gt;&lt;/div&gt;" style="text;html=1;align=center;verticalAlign=middle;resizable=0;points=[];autosize=1;strokeColor=none;fillColor=none;" parent="lkCGM3WwdxfAOzGKJ_4i-3" vertex="1">
          <mxGeometry x="45" y="160" width="130" height="40" as="geometry" />
        </mxCell>
        <mxCell id="p_1Ra2Rw0H--HfCNnFRR-3" value="" style="ellipse;whiteSpace=wrap;html=1;fillColor=#fff2cc;strokeColor=#d6b656;" parent="lkCGM3WwdxfAOzGKJ_4i-3" vertex="1">
          <mxGeometry x="460" y="420" width="90" height="40" as="geometry" />
        </mxCell>
        <mxCell id="p_1Ra2Rw0H--HfCNnFRR-4" value="&lt;font style=&quot;vertical-align: inherit;&quot;&gt;&lt;font style=&quot;vertical-align: inherit;&quot;&gt;&lt;font style=&quot;vertical-align: inherit;&quot;&gt;&lt;font style=&quot;vertical-align: inherit;&quot;&gt;&lt;font style=&quot;vertical-align: inherit;&quot;&gt;&lt;font style=&quot;vertical-align: inherit;&quot;&gt;&lt;font style=&quot;vertical-align: inherit;&quot;&gt;&lt;font style=&quot;vertical-align: inherit;&quot;&gt;&lt;font style=&quot;vertical-align: inherit;&quot;&gt;&lt;font style=&quot;vertical-align: inherit;&quot;&gt;&lt;font style=&quot;vertical-align: inherit;&quot;&gt;&lt;font style=&quot;vertical-align: inherit;&quot;&gt;ACTUALIZAR&amp;nbsp;&lt;/font&gt;&lt;/font&gt;&lt;/font&gt;&lt;/font&gt;&lt;/font&gt;&lt;/font&gt;&lt;/font&gt;&lt;/font&gt;&lt;/font&gt;&lt;/font&gt;&lt;/font&gt;&lt;/font&gt;&lt;div&gt;&lt;font style=&quot;vertical-align: inherit;&quot;&gt;&lt;font style=&quot;vertical-align: inherit;&quot;&gt;&lt;font style=&quot;vertical-align: inherit;&quot;&gt;&lt;font style=&quot;vertical-align: inherit;&quot;&gt;&lt;font style=&quot;vertical-align: inherit;&quot;&gt;&lt;font style=&quot;vertical-align: inherit;&quot;&gt;&lt;font style=&quot;vertical-align: inherit;&quot;&gt;&lt;font style=&quot;vertical-align: inherit;&quot;&gt;&lt;font style=&quot;vertical-align: inherit;&quot;&gt;&lt;font style=&quot;vertical-align: inherit;&quot;&gt;INFORMACIÓN&lt;/font&gt;&lt;/font&gt;&lt;/font&gt;&lt;/font&gt;&lt;/font&gt;&lt;/font&gt;&lt;/font&gt;&lt;/font&gt;&lt;/font&gt;&lt;/font&gt;&lt;div&gt;&lt;span style=&quot;background-color: transparent; color: light-dark(rgb(0, 0, 0), rgb(255, 255, 255));&quot;&gt;&lt;font style=&quot;vertical-align: inherit;&quot;&gt;&lt;font style=&quot;vertical-align: inherit;&quot;&gt;&lt;font style=&quot;vertical-align: inherit;&quot;&gt;&lt;font style=&quot;vertical-align: inherit;&quot;&gt;&lt;font style=&quot;vertical-align: inherit;&quot;&gt;&lt;font style=&quot;vertical-align: inherit;&quot;&gt;DEL USUARIO&lt;/font&gt;&lt;/font&gt;&lt;/font&gt;&lt;/font&gt;&lt;/font&gt;&lt;/font&gt;&lt;/span&gt;&lt;/div&gt;&lt;div&gt;&lt;div&gt;&lt;div&gt;&lt;font style=&quot;vertical-align: inherit;&quot;&gt;&lt;font style=&quot;vertical-align: inherit;&quot;&gt;&lt;br&gt;&lt;/font&gt;&lt;/font&gt;&lt;/div&gt;&lt;/div&gt;&lt;/div&gt;&lt;/div&gt;" style="text;html=1;align=center;verticalAlign=middle;resizable=0;points=[];autosize=1;strokeColor=none;fillColor=none;" parent="lkCGM3WwdxfAOzGKJ_4i-3" vertex="1">
          <mxGeometry x="450" y="455" width="110" height="70" as="geometry" />
        </mxCell>
        <mxCell id="p_1Ra2Rw0H--HfCNnFRR-5" value="" style="endArrow=classic;html=1;rounded=0;fillColor=#d5e8d4;strokeColor=#82b366;" parent="lkCGM3WwdxfAOzGKJ_4i-3" edge="1" source="lkCGM3WwdxfAOzGKJ_4i-4">
          <mxGeometry width="50" height="50" relative="1" as="geometry">
            <mxPoint x="630" y="290" as="sourcePoint" />
            <mxPoint x="510" y="410" as="targetPoint" />
          </mxGeometry>
        </mxCell>
        <mxCell id="p_1Ra2Rw0H--HfCNnFRR-6" value="" style="ellipse;whiteSpace=wrap;html=1;fillColor=#ffe6cc;strokeColor=#d79b00;" parent="lkCGM3WwdxfAOzGKJ_4i-3" vertex="1">
          <mxGeometry x="65" y="20" width="90" height="40" as="geometry" />
        </mxCell>
        <mxCell id="p_1Ra2Rw0H--HfCNnFRR-7" value="" style="ellipse;whiteSpace=wrap;html=1;fillColor=#ffe6cc;strokeColor=#d79b00;" parent="lkCGM3WwdxfAOzGKJ_4i-3" vertex="1">
          <mxGeometry x="65" y="120" width="90" height="40" as="geometry" />
        </mxCell>
        <mxCell id="p_1Ra2Rw0H--HfCNnFRR-11" value="" style="endArrow=classic;html=1;rounded=0;fillColor=#d5e8d4;strokeColor=#82b366;entryX=0;entryY=0.5;entryDx=0;entryDy=0;" parent="lkCGM3WwdxfAOzGKJ_4i-3" target="p_1Ra2Rw0H--HfCNnFRR-6" edge="1">
          <mxGeometry width="50" height="50" relative="1" as="geometry">
            <mxPoint x="-40" y="280" as="sourcePoint" />
            <mxPoint x="59.56770117439714" y="158.7871463963861" as="targetPoint" />
          </mxGeometry>
        </mxCell>
        <mxCell id="p_1Ra2Rw0H--HfCNnFRR-13" value="&lt;font style=&quot;vertical-align: inherit;&quot;&gt;&lt;font style=&quot;vertical-align: inherit;&quot;&gt;&lt;font style=&quot;vertical-align: inherit;&quot;&gt;&lt;font style=&quot;vertical-align: inherit;&quot;&gt;RESERVACION&amp;nbsp;&lt;/font&gt;&lt;/font&gt;&lt;/font&gt;&lt;/font&gt;&lt;div&gt;&lt;font style=&quot;vertical-align: inherit;&quot;&gt;&lt;font style=&quot;vertical-align: inherit;&quot;&gt;DE PELICULA&lt;/font&gt;&lt;/font&gt;&lt;div&gt;&lt;font style=&quot;vertical-align: inherit;&quot;&gt;&lt;font style=&quot;vertical-align: inherit;&quot;&gt;&lt;br&gt;&lt;/font&gt;&lt;/font&gt;&lt;/div&gt;&lt;/div&gt;" style="text;html=1;align=center;verticalAlign=middle;resizable=0;points=[];autosize=1;strokeColor=none;fillColor=none;" parent="lkCGM3WwdxfAOzGKJ_4i-3" vertex="1">
          <mxGeometry x="55" y="50" width="110" height="60" as="geometry" />
        </mxCell>
        <mxCell id="p_1Ra2Rw0H--HfCNnFRR-12" value="COBRAR" style="text;html=1;align=center;verticalAlign=middle;resizable=0;points=[];autosize=1;strokeColor=none;fillColor=none;" parent="lkCGM3WwdxfAOzGKJ_4i-3" vertex="1">
          <mxGeometry x="45" y="520" width="70" height="30" as="geometry" />
        </mxCell>
        <mxCell id="nsAFfVus-vPGRBJbYjcC-2" value="ASEGURARSE DE&amp;nbsp;&lt;div&gt;LA DISPONIBILIDAD&lt;/div&gt;" style="text;html=1;align=center;verticalAlign=middle;resizable=0;points=[];autosize=1;strokeColor=none;fillColor=none;" vertex="1" parent="lkCGM3WwdxfAOzGKJ_4i-3">
          <mxGeometry x="25" y="410" width="140" height="40" as="geometry" />
        </mxCell>
        <mxCell id="nsAFfVus-vPGRBJbYjcC-4" value="" style="endArrow=classic;html=1;rounded=0;exitX=0.074;exitY=0.188;exitDx=0;exitDy=0;exitPerimeter=0;" edge="1" parent="lkCGM3WwdxfAOzGKJ_4i-3" source="lkCGM3WwdxfAOzGKJ_4i-4" target="lkCGM3WwdxfAOzGKJ_4i-31">
          <mxGeometry width="50" height="50" relative="1" as="geometry">
            <mxPoint x="500" y="270" as="sourcePoint" />
            <mxPoint x="550" y="220" as="targetPoint" />
          </mxGeometry>
        </mxCell>
        <mxCell id="nsAFfVus-vPGRBJbYjcC-5" value="" style="endArrow=classic;html=1;rounded=0;exitX=0;exitY=0.5;exitDx=0;exitDy=0;" edge="1" parent="lkCGM3WwdxfAOzGKJ_4i-3" source="lkCGM3WwdxfAOzGKJ_4i-4" target="lkCGM3WwdxfAOzGKJ_4i-32">
          <mxGeometry width="50" height="50" relative="1" as="geometry">
            <mxPoint x="480" y="290" as="sourcePoint" />
            <mxPoint x="540" y="240" as="targetPoint" />
          </mxGeometry>
        </mxCell>
        <mxCell id="nsAFfVus-vPGRBJbYjcC-6" value="" style="endArrow=classic;html=1;rounded=0;exitX=0;exitY=1;exitDx=0;exitDy=0;" edge="1" parent="lkCGM3WwdxfAOzGKJ_4i-3" source="lkCGM3WwdxfAOzGKJ_4i-4" target="lkCGM3WwdxfAOzGKJ_4i-35">
          <mxGeometry width="50" height="50" relative="1" as="geometry">
            <mxPoint x="490" y="300" as="sourcePoint" />
            <mxPoint x="540" y="250" as="targetPoint" />
          </mxGeometry>
        </mxCell>
        <mxCell id="lkCGM3WwdxfAOzGKJ_4i-36" value="&lt;font style=&quot;vertical-align: inherit;&quot;&gt;&lt;font style=&quot;vertical-align: inherit;&quot;&gt;&lt;font style=&quot;vertical-align: inherit;&quot;&gt;&lt;font style=&quot;vertical-align: inherit;&quot;&gt;&lt;font style=&quot;vertical-align: inherit;&quot;&gt;&lt;font style=&quot;vertical-align: inherit;&quot;&gt;QUITAR ARTICULO&lt;/font&gt;&lt;/font&gt;&lt;/font&gt;&lt;/font&gt;&lt;/font&gt;&lt;/font&gt;" style="text;html=1;align=center;verticalAlign=middle;resizable=0;points=[];autosize=1;strokeColor=none;fillColor=none;" parent="1" vertex="1">
          <mxGeometry x="455" y="448" width="130" height="30" as="geometry" />
        </mxCell>
        <mxCell id="lkCGM3WwdxfAOzGKJ_4i-37" value="" style="endArrow=classic;html=1;rounded=0;entryX=0.592;entryY=1.067;entryDx=0;entryDy=0;entryPerimeter=0;fillColor=#d5e8d4;strokeColor=#82b366;" parent="1" edge="1" source="lkCGM3WwdxfAOzGKJ_4i-4">
          <mxGeometry width="50" height="50" relative="1" as="geometry">
            <mxPoint x="750" y="370" as="sourcePoint" />
            <mxPoint x="622.8799999999999" y="212.67999999999995" as="targetPoint" />
          </mxGeometry>
        </mxCell>
        <mxCell id="lkCGM3WwdxfAOzGKJ_4i-42" value="CLIENTE" style="shape=umlActor;verticalLabelPosition=bottom;verticalAlign=top;html=1;outlineConnect=0;fillColor=#dae8fc;strokeColor=#6c8ebf;" parent="1" vertex="1">
          <mxGeometry x="50" y="60" width="30" height="60" as="geometry" />
        </mxCell>
        <mxCell id="lkCGM3WwdxfAOzGKJ_4i-46" value="" style="endArrow=classic;html=1;rounded=0;fillColor=#d5e8d4;strokeColor=#82b366;" parent="1" edge="1">
          <mxGeometry width="50" height="50" relative="1" as="geometry">
            <mxPoint x="60" y="150" as="sourcePoint" />
            <mxPoint x="60" y="310" as="targetPoint" />
          </mxGeometry>
        </mxCell>
        <mxCell id="lkCGM3WwdxfAOzGKJ_4i-47" value="" style="endArrow=classic;html=1;rounded=0;fillColor=#d5e8d4;strokeColor=#82b366;entryX=0.011;entryY=0.7;entryDx=0;entryDy=0;entryPerimeter=0;" parent="1" target="p_1Ra2Rw0H--HfCNnFRR-7" edge="1">
          <mxGeometry width="50" height="50" relative="1" as="geometry">
            <mxPoint x="90" y="370" as="sourcePoint" />
            <mxPoint x="140" y="320" as="targetPoint" />
          </mxGeometry>
        </mxCell>
        <mxCell id="lkCGM3WwdxfAOzGKJ_4i-53" value="PRESTAMO DE PELIICULA" style="text;html=1;align=center;verticalAlign=middle;resizable=0;points=[];autosize=1;strokeColor=none;fillColor=none;" parent="1" vertex="1">
          <mxGeometry x="320" y="50" width="170" height="30" as="geometry" />
        </mxCell>
        <mxCell id="p_1Ra2Rw0H--HfCNnFRR-14" value="" style="endArrow=classic;html=1;rounded=0;fillColor=#d5e8d4;strokeColor=#82b366;" parent="1" target="lkCGM3WwdxfAOzGKJ_4i-15" edge="1">
          <mxGeometry width="50" height="50" relative="1" as="geometry">
            <mxPoint x="100" y="417.03" as="sourcePoint" />
            <mxPoint x="170" y="400" as="targetPoint" />
            <Array as="points">
              <mxPoint x="100" y="417.03" />
            </Array>
          </mxGeometry>
        </mxCell>
        <mxCell id="nsAFfVus-vPGRBJbYjcC-1" value="&lt;font style=&quot;vertical-align: inherit;&quot;&gt;&lt;font style=&quot;vertical-align: inherit;&quot;&gt;AGREGAR TITULO&lt;/font&gt;&lt;/font&gt;" style="text;html=1;align=center;verticalAlign=middle;resizable=0;points=[];autosize=1;strokeColor=none;fillColor=none;" vertex="1" parent="1">
          <mxGeometry x="545" y="175" width="130" height="30" as="geometry" />
        </mxCell>
      </root>
    </mxGraphModel>
  </diagram>
</mxfile>
